<mxfile host="Electron" agent="Mozilla/5.0 (Windows NT 10.0; Win64; x64) AppleWebKit/537.36 (KHTML, like Gecko) draw.io/25.0.2 Chrome/128.0.6613.186 Electron/32.2.5 Safari/537.36" version="25.0.2">
  <diagram name="Seite-1" id="RvDkHXV6Svx2xyG0lJyH">
    <mxGraphModel dx="1040" dy="621" grid="1" gridSize="10" guides="1" tooltips="1" connect="1" arrows="1" fold="1" page="1" pageScale="1" pageWidth="827" pageHeight="1169" math="0" shadow="0">
      <root>
        <mxCell id="0" />
        <mxCell id="1" parent="0" />
        <mxCell id="RSjLiX24gwSyvf19RA6z-3" value="" style="rounded=0;orthogonalLoop=1;jettySize=auto;html=1;endArrow=halfCircle;endFill=0;endSize=6;strokeWidth=1;sketch=0;fontSize=12;curved=1;" edge="1" target="RSjLiX24gwSyvf19RA6z-4" parent="1" source="RSjLiX24gwSyvf19RA6z-8">
          <mxGeometry relative="1" as="geometry">
            <mxPoint x="175" y="315" as="sourcePoint" />
          </mxGeometry>
        </mxCell>
        <mxCell id="RSjLiX24gwSyvf19RA6z-4" value="" style="ellipse;whiteSpace=wrap;html=1;align=center;aspect=fixed;fillColor=none;strokeColor=none;resizable=0;perimeter=centerPerimeter;rotatable=0;allowArrows=0;points=[];outlineConnect=1;" vertex="1" parent="1">
          <mxGeometry x="150" y="310" width="10" height="10" as="geometry" />
        </mxCell>
        <mxCell id="RSjLiX24gwSyvf19RA6z-6" value="&amp;lt;&amp;lt;component&amp;gt;&amp;gt;&lt;div&gt;&lt;br&gt;&lt;/div&gt;&lt;div&gt;CreateUser&lt;/div&gt;" style="shape=module;align=left;spacingLeft=20;align=center;verticalAlign=top;whiteSpace=wrap;html=1;" vertex="1" parent="1">
          <mxGeometry x="270" y="290" width="120" height="50" as="geometry" />
        </mxCell>
        <mxCell id="RSjLiX24gwSyvf19RA6z-7" value="CreateUser" style="text;html=1;align=center;verticalAlign=middle;whiteSpace=wrap;rounded=0;" vertex="1" parent="1">
          <mxGeometry x="110" y="330" width="60" height="30" as="geometry" />
        </mxCell>
        <mxCell id="RSjLiX24gwSyvf19RA6z-8" value="" style="line;strokeWidth=1;fillColor=none;align=left;verticalAlign=middle;spacingTop=-1;spacingLeft=3;spacingRight=3;rotatable=0;labelPosition=right;points=[];portConstraint=eastwest;strokeColor=inherit;" vertex="1" parent="1">
          <mxGeometry x="155" y="311" width="125" height="8" as="geometry" />
        </mxCell>
        <mxCell id="RSjLiX24gwSyvf19RA6z-9" value="" style="rounded=0;orthogonalLoop=1;jettySize=auto;html=1;endArrow=halfCircle;endFill=0;endSize=6;strokeWidth=1;sketch=0;fontSize=12;curved=1;" edge="1" target="RSjLiX24gwSyvf19RA6z-10" parent="1">
          <mxGeometry relative="1" as="geometry">
            <mxPoint x="160" y="315" as="sourcePoint" />
          </mxGeometry>
        </mxCell>
        <mxCell id="RSjLiX24gwSyvf19RA6z-10" value="" style="ellipse;whiteSpace=wrap;html=1;align=center;aspect=fixed;fillColor=none;strokeColor=none;resizable=0;perimeter=centerPerimeter;rotatable=0;allowArrows=0;points=[];outlineConnect=1;" vertex="1" parent="1">
          <mxGeometry x="135" y="310" width="10" height="10" as="geometry" />
        </mxCell>
        <mxCell id="RSjLiX24gwSyvf19RA6z-11" value="" style="rounded=0;orthogonalLoop=1;jettySize=auto;html=1;endArrow=halfCircle;endFill=0;endSize=6;strokeWidth=1;sketch=0;" edge="1" target="RSjLiX24gwSyvf19RA6z-13" parent="1" source="RSjLiX24gwSyvf19RA6z-16">
          <mxGeometry relative="1" as="geometry">
            <mxPoint x="550" y="315" as="sourcePoint" />
          </mxGeometry>
        </mxCell>
        <mxCell id="RSjLiX24gwSyvf19RA6z-12" value="" style="rounded=0;orthogonalLoop=1;jettySize=auto;html=1;endArrow=oval;endFill=0;sketch=0;sourcePerimeterSpacing=0;targetPerimeterSpacing=0;endSize=10;exitX=1;exitY=0.5;exitDx=0;exitDy=0;" edge="1" target="RSjLiX24gwSyvf19RA6z-13" parent="1" source="RSjLiX24gwSyvf19RA6z-6">
          <mxGeometry relative="1" as="geometry">
            <mxPoint x="510" y="315" as="sourcePoint" />
          </mxGeometry>
        </mxCell>
        <mxCell id="RSjLiX24gwSyvf19RA6z-13" value="" style="ellipse;whiteSpace=wrap;html=1;align=center;aspect=fixed;fillColor=none;strokeColor=none;resizable=0;perimeter=centerPerimeter;rotatable=0;allowArrows=0;points=[];outlineConnect=1;" vertex="1" parent="1">
          <mxGeometry x="525" y="310" width="10" height="10" as="geometry" />
        </mxCell>
        <mxCell id="RSjLiX24gwSyvf19RA6z-14" value="Home" style="text;html=1;align=center;verticalAlign=middle;whiteSpace=wrap;rounded=0;" vertex="1" parent="1">
          <mxGeometry x="500" y="330" width="60" height="30" as="geometry" />
        </mxCell>
        <mxCell id="RSjLiX24gwSyvf19RA6z-16" value="&amp;lt;&amp;lt;component&amp;gt;&amp;gt;&lt;div&gt;&lt;br&gt;&lt;/div&gt;&lt;div&gt;Load Home Page&lt;/div&gt;" style="shape=module;align=left;spacingLeft=20;align=center;verticalAlign=top;whiteSpace=wrap;html=1;" vertex="1" parent="1">
          <mxGeometry x="600" y="290" width="120" height="50" as="geometry" />
        </mxCell>
        <mxCell id="RSjLiX24gwSyvf19RA6z-17" value="" style="line;strokeWidth=1;fillColor=none;align=left;verticalAlign=middle;spacingTop=-1;spacingLeft=3;spacingRight=3;rotatable=0;labelPosition=right;points=[];portConstraint=eastwest;strokeColor=inherit;" vertex="1" parent="1">
          <mxGeometry x="600" y="311" width="10" height="8" as="geometry" />
        </mxCell>
      </root>
    </mxGraphModel>
  </diagram>
</mxfile>
